<svg xmlns="http://www.w3.org/2000/svg" xmlns:xlink="http://www.w3.org/1999/xlink" width="500" viewBox="0 0 375 374.999991" height="500" preserveAspectRatio="xMidYMid meet"><defs><g></g><clipPath id="c4b7ff8f4a"><path d="M 283.410156 152.890625 L 350.367188 152.890625 L 350.367188 222.203125 L 283.410156 222.203125 Z M 283.410156 152.890625 " clip-rule="nonzero"></path></clipPath><clipPath id="eb8759ccee"><path d="M 287.160156 152.890625 L 346.617188 152.890625 C 348.6875 152.890625 350.367188 154.570312 350.367188 156.640625 L 350.367188 218.359375 C 350.367188 220.429688 348.6875 222.109375 346.617188 222.109375 L 287.160156 222.109375 C 285.089844 222.109375 283.410156 220.429688 283.410156 218.359375 L 283.410156 156.640625 C 283.410156 154.570312 285.089844 152.890625 287.160156 152.890625 Z M 287.160156 152.890625 " clip-rule="nonzero"></path></clipPath></defs><g clip-path="url(#c4b7ff8f4a)"><g clip-path="url(#eb8759ccee)"><path fill="#54debd" d="M 283.410156 152.890625 L 350.367188 152.890625 L 350.367188 222.203125 L 283.410156 222.203125 Z M 283.410156 152.890625 " fill-opacity="1" fill-rule="nonzero"></path></g></g><g fill="#3c3a60" fill-opacity="1"><g transform="translate(295.719273, 205.571428)"><g><path d="M 8.140625 -25.359375 L 17.75 -25.359375 L 17.75 -21.546875 L 8.140625 -21.546875 L 8.140625 -9.84375 C 8.140625 -8.582031 8.238281 -7.535156 8.4375 -6.703125 C 8.632812 -5.878906 8.925781 -5.226562 9.3125 -4.75 C 9.707031 -4.28125 10.195312 -3.945312 10.78125 -3.75 C 11.363281 -3.5625 12.046875 -3.46875 12.828125 -3.46875 C 14.191406 -3.46875 15.285156 -3.617188 16.109375 -3.921875 C 16.941406 -4.234375 17.519531 -4.453125 17.84375 -4.578125 L 18.71875 -0.828125 C 18.269531 -0.597656 17.472656 -0.316406 16.328125 0.015625 C 15.191406 0.359375 13.894531 0.53125 12.4375 0.53125 C 10.707031 0.53125 9.28125 0.3125 8.15625 -0.125 C 7.039062 -0.5625 6.140625 -1.21875 5.453125 -2.09375 C 4.773438 -2.96875 4.296875 -4.046875 4.015625 -5.328125 C 3.742188 -6.617188 3.609375 -8.109375 3.609375 -9.796875 L 3.609375 -32.421875 L 8.140625 -33.203125 Z M 8.140625 -25.359375 "></path></g></g></g><g fill="#ffffff" fill-opacity="1"><g transform="translate(307.335042, 205.521229)"><g><path d="M 8.140625 -25.34375 L 17.75 -25.34375 L 17.75 -21.546875 L 8.140625 -21.546875 L 8.140625 -9.84375 C 8.140625 -8.582031 8.234375 -7.535156 8.421875 -6.703125 C 8.617188 -5.867188 8.910156 -5.21875 9.296875 -4.75 C 9.691406 -4.28125 10.179688 -3.945312 10.765625 -3.75 C 11.359375 -3.5625 12.046875 -3.46875 12.828125 -3.46875 C 14.191406 -3.46875 15.285156 -3.617188 16.109375 -3.921875 C 16.941406 -4.234375 17.519531 -4.453125 17.84375 -4.578125 L 18.71875 -0.828125 C 18.257812 -0.597656 17.460938 -0.316406 16.328125 0.015625 C 15.191406 0.359375 13.894531 0.53125 12.4375 0.53125 C 10.707031 0.53125 9.28125 0.3125 8.15625 -0.125 C 7.039062 -0.5625 6.140625 -1.21875 5.453125 -2.09375 C 4.773438 -2.96875 4.296875 -4.046875 4.015625 -5.328125 C 3.742188 -6.617188 3.609375 -8.109375 3.609375 -9.796875 L 3.609375 -32.421875 L 8.140625 -33.203125 Z M 8.140625 -25.34375 "></path></g></g></g><g fill="#3c3a60" fill-opacity="1"><g transform="translate(318.974484, 205.571428)"><g><path d="M 13.796875 -37.84375 C 15.128906 -37.84375 16.273438 -37.742188 17.234375 -37.546875 C 18.191406 -37.347656 18.867188 -37.171875 19.265625 -37.015625 L 18.4375 -33.109375 C 18.039062 -33.304688 17.484375 -33.492188 16.765625 -33.671875 C 16.054688 -33.847656 15.179688 -33.9375 14.140625 -33.9375 C 12.023438 -33.9375 10.546875 -33.359375 9.703125 -32.203125 C 8.859375 -31.054688 8.4375 -29.503906 8.4375 -27.546875 L 8.4375 -25.359375 L 18.1875 -25.359375 L 18.1875 -21.546875 L 8.4375 -21.546875 L 8.4375 0 L 3.90625 0 L 3.90625 -27.65625 C 3.90625 -30.90625 4.703125 -33.414062 6.296875 -35.1875 C 7.890625 -36.957031 10.390625 -37.84375 13.796875 -37.84375 Z M 13.796875 -37.84375 "></path></g></g></g><g fill="#ffffff" fill-opacity="1"><g transform="translate(24.632857, 198.949899)"><g><path d="M 19.046875 -24.03125 L 19.046875 -21.125 L 11.484375 -21.125 L 11.484375 0 L 8.109375 0 L 8.109375 -21.125 L 0.5625 -21.125 L 0.5625 -24.03125 Z M 19.046875 -24.03125 "></path></g></g></g><g fill="#ffffff" fill-opacity="1"><g transform="translate(44.233403, 198.949899)"><g><path d="M 17.140625 -0.515625 C 16.398438 -0.335938 15.421875 -0.144531 14.203125 0.0625 C 12.992188 0.269531 11.585938 0.375 9.984375 0.375 C 8.597656 0.375 7.429688 0.175781 6.484375 -0.21875 C 5.535156 -0.625 4.769531 -1.195312 4.1875 -1.9375 C 3.613281 -2.675781 3.195312 -3.550781 2.9375 -4.5625 C 2.6875 -5.570312 2.5625 -6.6875 2.5625 -7.90625 L 2.5625 -18.03125 L 5.796875 -18.03125 L 5.796875 -8.609375 C 5.796875 -6.410156 6.140625 -4.835938 6.828125 -3.890625 C 7.523438 -2.941406 8.695312 -2.46875 10.34375 -2.46875 C 10.6875 -2.46875 11.039062 -2.476562 11.40625 -2.5 C 11.78125 -2.519531 12.128906 -2.546875 12.453125 -2.578125 C 12.773438 -2.617188 13.066406 -2.65625 13.328125 -2.6875 C 13.597656 -2.71875 13.789062 -2.757812 13.90625 -2.8125 L 13.90625 -18.03125 L 17.140625 -18.03125 Z M 17.140625 -0.515625 "></path></g></g></g><g fill="#ffffff" fill-opacity="1"><g transform="translate(64.146174, 198.949899)"><g><path d="M 19.046875 -24.03125 L 19.046875 -21.125 L 11.484375 -21.125 L 11.484375 0 L 8.109375 0 L 8.109375 -21.125 L 0.5625 -21.125 L 0.5625 -24.03125 Z M 19.046875 -24.03125 "></path></g></g></g><g fill="#ffffff" fill-opacity="1"><g transform="translate(83.74672, 198.949899)"><g><path d="M 9.4375 -18.421875 C 9.707031 -18.421875 10.019531 -18.398438 10.375 -18.359375 C 10.738281 -18.328125 11.09375 -18.28125 11.4375 -18.21875 C 11.789062 -18.164062 12.109375 -18.109375 12.390625 -18.046875 C 12.679688 -17.992188 12.898438 -17.945312 13.046875 -17.90625 L 12.484375 -15.09375 C 12.234375 -15.1875 11.8125 -15.296875 11.21875 -15.421875 C 10.632812 -15.546875 9.878906 -15.609375 8.953125 -15.609375 C 8.347656 -15.609375 7.75 -15.546875 7.15625 -15.421875 C 6.570312 -15.296875 6.1875 -15.207031 6 -15.15625 L 6 0 L 2.78125 0 L 2.78125 -17.28125 C 3.539062 -17.550781 4.484375 -17.804688 5.609375 -18.046875 C 6.742188 -18.296875 8.019531 -18.421875 9.4375 -18.421875 Z M 9.4375 -18.421875 "></path></g></g></g><g fill="#ffffff" fill-opacity="1"><g transform="translate(97.137528, 198.949899)"><g><path d="M 8.875 -2.328125 C 9.644531 -2.328125 10.320312 -2.34375 10.90625 -2.375 C 11.5 -2.40625 11.992188 -2.46875 12.390625 -2.5625 L 12.390625 -7.9375 C 12.148438 -8.050781 11.769531 -8.148438 11.25 -8.234375 C 10.726562 -8.316406 10.097656 -8.359375 9.359375 -8.359375 C 8.878906 -8.359375 8.363281 -8.320312 7.8125 -8.25 C 7.269531 -8.1875 6.773438 -8.046875 6.328125 -7.828125 C 5.878906 -7.609375 5.503906 -7.304688 5.203125 -6.921875 C 4.898438 -6.535156 4.75 -6.03125 4.75 -5.40625 C 4.75 -4.25 5.117188 -3.445312 5.859375 -3 C 6.597656 -2.550781 7.601562 -2.328125 8.875 -2.328125 Z M 8.609375 -18.484375 C 9.898438 -18.484375 10.988281 -18.316406 11.875 -17.984375 C 12.769531 -17.648438 13.488281 -17.175781 14.03125 -16.5625 C 14.570312 -15.945312 14.957031 -15.21875 15.1875 -14.375 C 15.425781 -13.53125 15.546875 -12.597656 15.546875 -11.578125 L 15.546875 -0.3125 C 15.265625 -0.269531 14.875 -0.207031 14.375 -0.125 C 13.875 -0.0390625 13.3125 0.03125 12.6875 0.09375 C 12.070312 0.164062 11.398438 0.226562 10.671875 0.28125 C 9.941406 0.34375 9.21875 0.375 8.5 0.375 C 7.476562 0.375 6.539062 0.269531 5.6875 0.0625 C 4.832031 -0.144531 4.09375 -0.472656 3.46875 -0.921875 C 2.84375 -1.367188 2.351562 -1.960938 2 -2.703125 C 1.65625 -3.441406 1.484375 -4.332031 1.484375 -5.375 C 1.484375 -6.375 1.6875 -7.226562 2.09375 -7.9375 C 2.5 -8.65625 3.046875 -9.234375 3.734375 -9.671875 C 4.429688 -10.117188 5.242188 -10.445312 6.171875 -10.65625 C 7.097656 -10.863281 8.070312 -10.96875 9.09375 -10.96875 C 9.414062 -10.96875 9.75 -10.945312 10.09375 -10.90625 C 10.4375 -10.875 10.765625 -10.828125 11.078125 -10.765625 C 11.390625 -10.710938 11.660156 -10.660156 11.890625 -10.609375 C 12.128906 -10.566406 12.296875 -10.535156 12.390625 -10.515625 L 12.390625 -11.40625 C 12.390625 -11.9375 12.328125 -12.460938 12.203125 -12.984375 C 12.085938 -13.503906 11.878906 -13.96875 11.578125 -14.375 C 11.285156 -14.78125 10.878906 -15.101562 10.359375 -15.34375 C 9.835938 -15.59375 9.160156 -15.71875 8.328125 -15.71875 C 7.265625 -15.71875 6.332031 -15.640625 5.53125 -15.484375 C 4.738281 -15.335938 4.144531 -15.179688 3.75 -15.015625 L 3.359375 -17.6875 C 3.773438 -17.875 4.46875 -18.050781 5.4375 -18.21875 C 6.414062 -18.394531 7.472656 -18.484375 8.609375 -18.484375 Z M 13.3125 -24.875 L 8.421875 -20.125 L 6.796875 -21.578125 L 11.234375 -26.921875 Z M 13.3125 -24.875 "></path></g></g></g><g fill="#ffffff" fill-opacity="1"><g transform="translate(115.246351, 198.949899)"><g><path d="M 2.78125 -17.515625 C 3.519531 -17.703125 4.492188 -17.898438 5.703125 -18.109375 C 6.921875 -18.316406 8.328125 -18.421875 9.921875 -18.421875 C 11.078125 -18.421875 12.046875 -18.265625 12.828125 -17.953125 C 13.617188 -17.640625 14.28125 -17.179688 14.8125 -16.578125 C 14.96875 -16.691406 15.21875 -16.851562 15.5625 -17.0625 C 15.914062 -17.269531 16.347656 -17.472656 16.859375 -17.671875 C 17.367188 -17.867188 17.9375 -18.039062 18.5625 -18.1875 C 19.1875 -18.34375 19.851562 -18.421875 20.5625 -18.421875 C 21.957031 -18.421875 23.09375 -18.21875 23.96875 -17.8125 C 24.84375 -17.40625 25.53125 -16.832031 26.03125 -16.09375 C 26.53125 -15.351562 26.863281 -14.472656 27.03125 -13.453125 C 27.207031 -12.441406 27.296875 -11.332031 27.296875 -10.125 L 27.296875 0 L 24.078125 0 L 24.078125 -9.4375 C 24.078125 -10.5 24.023438 -11.410156 23.921875 -12.171875 C 23.816406 -12.929688 23.617188 -13.566406 23.328125 -14.078125 C 23.035156 -14.585938 22.640625 -14.960938 22.140625 -15.203125 C 21.648438 -15.453125 21.007812 -15.578125 20.21875 -15.578125 C 19.132812 -15.578125 18.238281 -15.429688 17.53125 -15.140625 C 16.832031 -14.847656 16.351562 -14.585938 16.09375 -14.359375 C 16.28125 -13.753906 16.421875 -13.09375 16.515625 -12.375 C 16.609375 -11.664062 16.65625 -10.914062 16.65625 -10.125 L 16.65625 0 L 13.421875 0 L 13.421875 -9.4375 C 13.421875 -10.5 13.363281 -11.410156 13.25 -12.171875 C 13.132812 -12.929688 12.929688 -13.566406 12.640625 -14.078125 C 12.347656 -14.585938 11.953125 -14.960938 11.453125 -15.203125 C 10.960938 -15.453125 10.335938 -15.578125 9.578125 -15.578125 C 9.253906 -15.578125 8.90625 -15.5625 8.53125 -15.53125 C 8.164062 -15.507812 7.8125 -15.484375 7.46875 -15.453125 C 7.132812 -15.421875 6.828125 -15.378906 6.546875 -15.328125 C 6.273438 -15.285156 6.09375 -15.253906 6 -15.234375 L 6 0 L 2.78125 0 Z M 2.78125 -17.515625 "></path></g></g></g><g fill="#ffffff" fill-opacity="1"><g transform="translate(145.115493, 198.949899)"><g><path d="M 6 0 L 2.78125 0 L 2.78125 -18.03125 L 6 -18.03125 Z M 4.375 -21.296875 C 3.789062 -21.296875 3.296875 -21.484375 2.890625 -21.859375 C 2.492188 -22.242188 2.296875 -22.765625 2.296875 -23.421875 C 2.296875 -24.066406 2.492188 -24.578125 2.890625 -24.953125 C 3.296875 -25.335938 3.789062 -25.53125 4.375 -25.53125 C 4.945312 -25.53125 5.4375 -25.335938 5.84375 -24.953125 C 6.25 -24.578125 6.453125 -24.066406 6.453125 -23.421875 C 6.453125 -22.765625 6.25 -22.242188 5.84375 -21.859375 C 5.4375 -21.484375 4.945312 -21.296875 4.375 -21.296875 Z M 4.375 -21.296875 "></path></g></g></g><g fill="#ffffff" fill-opacity="1"><g transform="translate(153.892367, 198.949899)"><g><path d="M 5.796875 -18.03125 L 12.625 -18.03125 L 12.625 -15.328125 L 5.796875 -15.328125 L 5.796875 -7 C 5.796875 -6.101562 5.863281 -5.359375 6 -4.765625 C 6.132812 -4.179688 6.34375 -3.71875 6.625 -3.375 C 6.90625 -3.039062 7.253906 -2.804688 7.671875 -2.671875 C 8.085938 -2.535156 8.570312 -2.46875 9.125 -2.46875 C 10.09375 -2.46875 10.867188 -2.578125 11.453125 -2.796875 C 12.046875 -3.015625 12.460938 -3.171875 12.703125 -3.265625 L 13.3125 -0.59375 C 12.988281 -0.425781 12.421875 -0.222656 11.609375 0.015625 C 10.804688 0.253906 9.882812 0.375 8.84375 0.375 C 7.613281 0.375 6.597656 0.21875 5.796875 -0.09375 C 5.003906 -0.40625 4.363281 -0.867188 3.875 -1.484375 C 3.394531 -2.109375 3.054688 -2.878906 2.859375 -3.796875 C 2.660156 -4.710938 2.5625 -5.769531 2.5625 -6.96875 L 2.5625 -23.0625 L 5.796875 -23.625 Z M 5.796875 -18.03125 "></path></g></g></g><g fill="#ffffff" fill-opacity="1"><g transform="translate(167.838235, 198.949899)"><g><path d="M 1.765625 -8.984375 C 1.765625 -10.578125 1.992188 -11.96875 2.453125 -13.15625 C 2.921875 -14.351562 3.535156 -15.34375 4.296875 -16.125 C 5.066406 -16.914062 5.945312 -17.503906 6.9375 -17.890625 C 7.925781 -18.285156 8.941406 -18.484375 9.984375 -18.484375 C 12.410156 -18.484375 14.269531 -17.722656 15.5625 -16.203125 C 16.863281 -14.691406 17.515625 -12.390625 17.515625 -9.296875 C 17.515625 -9.160156 17.515625 -8.976562 17.515625 -8.75 C 17.515625 -8.53125 17.503906 -8.332031 17.484375 -8.15625 L 5.140625 -8.15625 C 5.273438 -6.28125 5.816406 -4.851562 6.765625 -3.875 C 7.710938 -2.90625 9.191406 -2.421875 11.203125 -2.421875 C 12.335938 -2.421875 13.289062 -2.519531 14.0625 -2.71875 C 14.84375 -2.914062 15.425781 -3.109375 15.8125 -3.296875 L 16.265625 -0.59375 C 15.867188 -0.382812 15.179688 -0.164062 14.203125 0.0625 C 13.222656 0.300781 12.109375 0.421875 10.859375 0.421875 C 9.285156 0.421875 7.925781 0.1875 6.78125 -0.28125 C 5.632812 -0.757812 4.691406 -1.414062 3.953125 -2.25 C 3.210938 -3.082031 2.660156 -4.070312 2.296875 -5.21875 C 1.941406 -6.363281 1.765625 -7.617188 1.765625 -8.984375 Z M 14.15625 -10.75 C 14.175781 -12.207031 13.8125 -13.40625 13.0625 -14.34375 C 12.3125 -15.28125 11.273438 -15.75 9.953125 -15.75 C 9.210938 -15.75 8.554688 -15.601562 7.984375 -15.3125 C 7.421875 -15.019531 6.941406 -14.644531 6.546875 -14.1875 C 6.160156 -13.726562 5.859375 -13.195312 5.640625 -12.59375 C 5.421875 -11.988281 5.273438 -11.375 5.203125 -10.75 Z M 14.15625 -10.75 "></path></g></g></g><g fill="#ffffff" fill-opacity="1"><g transform="translate(187.230634, 198.949899)"><g><path d="M 2.984375 0 L 2.984375 -24.03125 L 17.484375 -24.03125 L 17.484375 -21.15625 L 6.34375 -21.15625 L 6.34375 -13.90625 L 16.234375 -13.90625 L 16.234375 -11.0625 L 6.34375 -11.0625 L 6.34375 0 Z M 2.984375 0 "></path></g></g></g><g fill="#ffffff" fill-opacity="1"><g transform="translate(205.859829, 198.949899)"><g><path d="M 8.875 -2.328125 C 9.644531 -2.328125 10.320312 -2.34375 10.90625 -2.375 C 11.5 -2.40625 11.992188 -2.46875 12.390625 -2.5625 L 12.390625 -7.9375 C 12.148438 -8.050781 11.769531 -8.148438 11.25 -8.234375 C 10.726562 -8.316406 10.097656 -8.359375 9.359375 -8.359375 C 8.878906 -8.359375 8.363281 -8.320312 7.8125 -8.25 C 7.269531 -8.1875 6.773438 -8.046875 6.328125 -7.828125 C 5.878906 -7.609375 5.503906 -7.304688 5.203125 -6.921875 C 4.898438 -6.535156 4.75 -6.03125 4.75 -5.40625 C 4.75 -4.25 5.117188 -3.445312 5.859375 -3 C 6.597656 -2.550781 7.601562 -2.328125 8.875 -2.328125 Z M 8.609375 -18.484375 C 9.898438 -18.484375 10.988281 -18.316406 11.875 -17.984375 C 12.769531 -17.648438 13.488281 -17.175781 14.03125 -16.5625 C 14.570312 -15.945312 14.957031 -15.21875 15.1875 -14.375 C 15.425781 -13.53125 15.546875 -12.597656 15.546875 -11.578125 L 15.546875 -0.3125 C 15.265625 -0.269531 14.875 -0.207031 14.375 -0.125 C 13.875 -0.0390625 13.3125 0.03125 12.6875 0.09375 C 12.070312 0.164062 11.398438 0.226562 10.671875 0.28125 C 9.941406 0.34375 9.21875 0.375 8.5 0.375 C 7.476562 0.375 6.539062 0.269531 5.6875 0.0625 C 4.832031 -0.144531 4.09375 -0.472656 3.46875 -0.921875 C 2.84375 -1.367188 2.351562 -1.960938 2 -2.703125 C 1.65625 -3.441406 1.484375 -4.332031 1.484375 -5.375 C 1.484375 -6.375 1.6875 -7.226562 2.09375 -7.9375 C 2.5 -8.65625 3.046875 -9.234375 3.734375 -9.671875 C 4.429688 -10.117188 5.242188 -10.445312 6.171875 -10.65625 C 7.097656 -10.863281 8.070312 -10.96875 9.09375 -10.96875 C 9.414062 -10.96875 9.75 -10.945312 10.09375 -10.90625 C 10.4375 -10.875 10.765625 -10.828125 11.078125 -10.765625 C 11.390625 -10.710938 11.660156 -10.660156 11.890625 -10.609375 C 12.128906 -10.566406 12.296875 -10.535156 12.390625 -10.515625 L 12.390625 -11.40625 C 12.390625 -11.9375 12.328125 -12.460938 12.203125 -12.984375 C 12.085938 -13.503906 11.878906 -13.96875 11.578125 -14.375 C 11.285156 -14.78125 10.878906 -15.101562 10.359375 -15.34375 C 9.835938 -15.59375 9.160156 -15.71875 8.328125 -15.71875 C 7.265625 -15.71875 6.332031 -15.640625 5.53125 -15.484375 C 4.738281 -15.335938 4.144531 -15.179688 3.75 -15.015625 L 3.359375 -17.6875 C 3.773438 -17.875 4.46875 -18.050781 5.4375 -18.21875 C 6.414062 -18.394531 7.472656 -18.484375 8.609375 -18.484375 Z M 13.3125 -24.875 L 8.421875 -20.125 L 6.796875 -21.578125 L 11.234375 -26.921875 Z M 13.3125 -24.875 "></path></g></g></g><g fill="#ffffff" fill-opacity="1"><g transform="translate(223.968652, 198.949899)"><g><path d="M 10.609375 0.421875 C 9.148438 0.421875 7.875 0.191406 6.78125 -0.265625 C 5.6875 -0.734375 4.757812 -1.382812 4 -2.21875 C 3.25 -3.050781 2.6875 -4.039062 2.3125 -5.1875 C 1.945312 -6.332031 1.765625 -7.597656 1.765625 -8.984375 C 1.765625 -10.367188 1.96875 -11.640625 2.375 -12.796875 C 2.78125 -13.953125 3.351562 -14.953125 4.09375 -15.796875 C 4.832031 -16.640625 5.738281 -17.296875 6.8125 -17.765625 C 7.882812 -18.242188 9.082031 -18.484375 10.40625 -18.484375 C 11.21875 -18.484375 12.023438 -18.414062 12.828125 -18.28125 C 13.640625 -18.144531 14.414062 -17.925781 15.15625 -17.625 L 14.4375 -14.875 C 13.945312 -15.113281 13.382812 -15.300781 12.75 -15.4375 C 12.113281 -15.570312 11.4375 -15.640625 10.71875 -15.640625 C 8.914062 -15.640625 7.535156 -15.070312 6.578125 -13.9375 C 5.617188 -12.8125 5.140625 -11.160156 5.140625 -8.984375 C 5.140625 -8.015625 5.25 -7.125 5.46875 -6.3125 C 5.6875 -5.5 6.03125 -4.800781 6.5 -4.21875 C 6.976562 -3.644531 7.585938 -3.203125 8.328125 -2.890625 C 9.066406 -2.578125 9.96875 -2.421875 11.03125 -2.421875 C 11.882812 -2.421875 12.65625 -2.5 13.34375 -2.65625 C 14.039062 -2.820312 14.585938 -3 14.984375 -3.1875 L 15.4375 -0.484375 C 15.25 -0.367188 14.984375 -0.257812 14.640625 -0.15625 C 14.296875 -0.0507812 13.898438 0.0390625 13.453125 0.125 C 13.015625 0.207031 12.546875 0.273438 12.046875 0.328125 C 11.554688 0.390625 11.078125 0.421875 10.609375 0.421875 Z M 10.609375 0.421875 "></path></g></g></g><g fill="#ffffff" fill-opacity="1"><g transform="translate(240.100071, 198.949899)"><g><path d="M 6 0 L 2.78125 0 L 2.78125 -18.03125 L 6 -18.03125 Z M 4.375 -21.296875 C 3.789062 -21.296875 3.296875 -21.484375 2.890625 -21.859375 C 2.492188 -22.242188 2.296875 -22.765625 2.296875 -23.421875 C 2.296875 -24.066406 2.492188 -24.578125 2.890625 -24.953125 C 3.296875 -25.335938 3.789062 -25.53125 4.375 -25.53125 C 4.945312 -25.53125 5.4375 -25.335938 5.84375 -24.953125 C 6.25 -24.578125 6.453125 -24.066406 6.453125 -23.421875 C 6.453125 -22.765625 6.25 -22.242188 5.84375 -21.859375 C 5.4375 -21.484375 4.945312 -21.296875 4.375 -21.296875 Z M 4.375 -21.296875 "></path></g></g></g><g fill="#ffffff" fill-opacity="1"><g transform="translate(248.876945, 198.949899)"><g><path d="M 8.1875 0.34375 C 6.195312 0.300781 4.785156 -0.125 3.953125 -0.9375 C 3.117188 -1.75 2.703125 -3.007812 2.703125 -4.71875 L 2.703125 -26.359375 L 5.9375 -26.921875 L 5.9375 -5.234375 C 5.9375 -4.703125 5.976562 -4.265625 6.0625 -3.921875 C 6.15625 -3.578125 6.304688 -3.300781 6.515625 -3.09375 C 6.722656 -2.882812 7 -2.726562 7.34375 -2.625 C 7.695312 -2.519531 8.128906 -2.429688 8.640625 -2.359375 Z M 8.1875 0.34375 "></path></g></g></g></svg>